<?xml version="1.0" encoding="UTF-8" standalone="no"?>
<!DOCTYPE svg PUBLIC "-//W3C//DTD SVG 1.1//EN" "http://www.w3.org/Graphics/SVG/1.1/DTD/svg11.dtd">
<svg width="100%" height="100%" viewBox="0 0 2363 2363" version="1.1" xmlns="http://www.w3.org/2000/svg" xmlns:xlink="http://www.w3.org/1999/xlink" xml:space="preserve" xmlns:serif="http://www.serif.com/" style="fill-rule:evenodd;clip-rule:evenodd;stroke-linecap:round;stroke-linejoin:round;stroke-miterlimit:1.5;">
    <g transform="matrix(1,0,0,1,-8.50803,41.7668)">
        <path d="M1122.78,1618.39L1122.09,1591.92C1122.09,1591.92 1158.64,1565.36 1176.06,1523.51C1177.89,1519.13 1176.75,1512.86 1176.75,1512.86C1176.75,1512.86 1095.08,1417.1 1074.58,1348.77C1059.47,1298.41 1056.12,1259.8 1065.35,1192.66C1074.58,1125.52 1128.87,1081.65 1159.86,1075.16C1187.88,1069.28 1287.87,1033.89 1337.12,1159.93C1387.63,1289.18 1283.05,1475.69 1275.77,1488.28C1268.5,1500.87 1257.83,1519.71 1257.83,1519.71L1298.33,1542.12C1298.33,1542.12 1316,1482.74 1407.5,1392.32C1483.29,1317.41 1670.67,1265.17 1749.89,1334.13C1783.58,1363.46 1757.16,1445.45 1722.14,1479.33C1600.31,1597.18 1337.12,1579.2 1337.12,1579.2L1337.12,1643.95C1337.12,1643.95 1520.25,1657.27 1599.14,1728.21C1661.01,1783.84 1606.11,1867.96 1521.15,1852.85C1434.13,1837.38 1367.18,1795.63 1337.12,1752.83C1307.06,1710.03 1300.31,1695.66 1300.31,1695.66C1300.31,1695.66 1126.43,1694.74 1035.07,1877.71C943.714,2060.67 1134.05,2164.68 1164.87,2178.35C1227.86,2206.3 1339.89,2173.46 1359.55,2168.32C1373.06,2164.8 1240.23,2240.41 1142.94,2195.79C1037.12,2147.27 947.407,2063.04 986.069,1907.58C1033.8,1715.64 1238.46,1657.85 1271.28,1652.8C1278.26,1651.73 1291.08,1648.15 1291.08,1648.15L1293.63,1570.12C1293.63,1570.12 1233.12,1521.76 1140.75,1614.12C1127.86,1627.02 1122.78,1618.39 1122.78,1618.39ZM1227.27,2043.95C1227.27,2043.95 1193.41,2001.49 1205.79,1955.99C1236.22,1844.07 1419.78,1861.57 1453.54,1971.43C1483.75,2069.69 1421.8,2132.03 1402.88,2146.21C1399.92,2148.42 1391.05,2154.57 1388.08,2156.02C1385.11,2157.47 1500.71,2108.34 1480.47,1979.03C1465.44,1883.05 1279.12,1790.08 1202.66,1918.49C1162.86,1985.32 1227.27,2043.95 1227.27,2043.95ZM1298.75,2051.57C1254.42,2050.96 1234.48,2002.08 1234.48,2002.08C1234.48,2002.08 1264.62,2035.84 1293.61,2033.39C1315.81,2031.51 1344.07,2002.1 1344.07,2002.1C1344.07,2002.1 1316.07,2051.81 1298.75,2051.57ZM1360.32,1696.08C1358.89,1728.04 1417.94,1823.01 1565.55,1825.55C1611.72,1826.35 1598.17,1780.48 1588.64,1766.55C1573.01,1743.72 1544.36,1725.6 1496.02,1711.08C1404.67,1683.65 1360.62,1689.36 1360.32,1696.08ZM1470.81,133.54C1470.81,133.54 1409.53,177.767 1321.47,296.742L1307.24,316.853C1231.78,428.924 1232.9,541.153 1232.9,541.153C1232.9,541.153 1304.29,531.529 1363.91,546.032C1470.37,571.928 1490.37,639.558 1482.85,634.769C1475.33,629.981 1380.01,592.314 1335.09,589.945C1265.53,586.277 1224.18,594.246 1224.18,594.246C1224.18,594.246 1204.51,662.781 1256.15,793.103C1333.68,988.731 1482.75,1039.31 1482.85,1038.17C1483.83,1027.34 1503.09,976.606 1535.72,942.154C1655.29,815.883 1788.08,774.274 1842.99,773.383C2023.99,770.445 2014.51,908.914 1958.53,990.059C1948.23,1004.99 1935.11,1018.74 1920.39,1031.31C1845.84,1094.96 1729.96,1128.48 1728.28,1132.41C1698.7,1201.42 1663.92,1234.28 1628.42,1239.26C1554.15,1249.68 1492.73,1204.63 1473.81,1160.61C1454.61,1115.95 1469.78,1078.02 1469.78,1078.02C1469.78,1078.02 1461.04,1078.02 1431.5,1057.21C1401.95,1036.39 1307.17,953.46 1251.11,853.99C1190.24,745.992 1186.71,600.177 1184.44,600.587C1149.88,606.822 1112.58,610.937 1075.97,635.686C1040.81,659.456 1018.92,705.811 1018.92,705.811C1067.93,742.74 1096.58,779.579 1099.93,784.951C1103.29,790.322 1165.06,886.202 1126.12,964.76C1087.18,1043.32 1031.45,1033.02 1006.61,1031.01C981.763,1028.99 920.752,1001.48 904.549,938.574C889.329,879.488 908.692,799.199 911.805,786.607C918.369,760.054 944.034,717.002 936.648,712.302C875.334,673.284 776.415,689.277 745.962,692.159C616.996,704.366 473.198,816.579 436.808,954.172C407.593,1064.64 459.905,1173.33 514.694,1228.12C569.483,1282.9 652.877,1291.31 652.877,1291.31C652.877,1291.31 655.001,1287.66 657.626,1279.5C669.713,1241.94 703.787,1195.58 757.501,1159.49C811.216,1123.4 852.632,1106.37 915.288,1101.57C967.855,1097.55 1014.67,1135.06 1019.36,1154.45C1036.77,1226.46 986.683,1306.65 881.716,1337.41C804.927,1359.92 658.147,1318.05 659.027,1339.03C664.543,1470.52 689.174,1515 747.069,1578.71C842.586,1683.83 993.484,1691.52 993.484,1691.52C993.484,1691.52 1004.9,1694.87 981.398,1695.54C957.898,1696.22 892.285,1694.2 849.789,1673.61C818.814,1658.6 733.105,1607.59 685.926,1535.97C643.612,1471.73 631.757,1340.61 629.098,1339.88C580.529,1326.64 438.177,1259.52 402.19,1131.83C315.331,823.647 589.194,668.274 743.028,649.228C874.774,632.916 965.341,673.959 965.341,673.959C965.341,673.959 1011.71,615.858 1057.12,589.358C1110.78,558.04 1175.25,552.79 1181.1,551.514L1181.1,465.989C1186.82,404.691 1209.19,352.966 1235.92,293.336C1284.73,184.442 1425.35,68.749 1425.35,68.749L1482.85,68.749L1470.81,133.54ZM1111.07,1604.45C1098.98,1623.63 1030.54,1672.56 958.283,1664.27C948.773,1663.18 942.907,1659.49 942.907,1659.49C942.907,1659.49 1010.49,1645.23 1041.04,1626.21C1044.31,1624.17 1069.22,1609.52 1074.49,1606.78C1077.56,1605.19 1101.81,1590.09 1105.72,1592.1C1109.64,1594.11 1116.11,1596.46 1111.07,1604.45ZM1341.46,1551.41C1348.47,1563.74 1578.78,1535.2 1648.34,1494.86C1777.04,1420.2 1715.94,1344.85 1685.67,1341.91C1616.35,1335.19 1535.21,1347.97 1457.02,1407.42C1378.83,1466.88 1335.11,1540.23 1341.46,1551.41ZM1199.12,1477.96C1232.21,1475.28 1308.4,1252.74 1271.88,1181.1C1221.63,1082.56 1150.13,1138.83 1141.53,1152.44C1132.94,1166.05 1099.93,1191.12 1104.62,1289.23C1109.3,1387.35 1171.25,1480.21 1199.12,1477.96ZM682.396,1292.83C682.396,1292.83 897.41,1359.27 980.509,1208.5C1018.11,1140.28 940.039,1119.62 866.317,1143.82C857.032,1146.87 817.916,1157.77 770.589,1192.2C719.434,1229.43 682.396,1292.83 682.396,1292.83ZM1533.18,1108.09C1496.66,1089.83 1481.05,1177.08 1589.24,1204.62C1638.54,1217.17 1716.32,1144.25 1701.82,1134.58C1687.32,1124.91 1686.4,1132.89 1633.09,1130.75C1579.78,1128.6 1569.71,1126.36 1533.18,1108.09ZM1709.99,866.964C1726.28,880.572 1746.95,1033.14 1729.76,1062.68C1712.57,1092.22 1583.12,1090.61 1542.3,1066.98C1501.47,1043.34 1548.33,975.376 1591.84,932.942C1635.35,890.508 1699.42,858.139 1709.99,866.964ZM1783.14,849.495C1733.86,899.972 1755,1067.03 1772.32,1068.06C1792.27,1069.26 1918.92,1016.13 1939.51,914.302C1953.1,847.081 1849.45,781.572 1783.14,849.495ZM1016.49,738.56C1012.71,734.684 993.872,732.684 987.95,742.324C978.218,758.164 968.929,769.866 959.4,803.046C936.893,881.418 929.388,997.322 1042.2,986.217C1112.8,979.267 1115,895.538 1090.44,833.468C1069.91,781.604 1028.1,750.481 1016.49,738.56ZM1639.7,691.658C1650.61,693.056 1686.69,719.847 1699.04,767.095C1700.66,773.313 1700.37,778.101 1700.37,778.101C1700.37,778.101 1679.37,740.877 1664.47,728.028C1662.87,726.654 1635.57,701.922 1635.57,698.869C1635.57,695.816 1635.16,691.076 1639.7,691.658ZM1526.46,646.302C1549.05,648.317 1623.8,686.927 1649.36,755.02C1652.72,763.982 1652.12,770.881 1652.12,770.881C1652.12,770.881 1608.62,717.236 1577.76,698.717C1574.45,696.737 1517.91,661.094 1517.91,656.694C1517.91,652.294 1517.06,645.464 1526.46,646.302Z" style="fill:url(#_Linear1);"/>
        <path d="M1122.78,1618.39L1122.09,1591.92C1122.09,1591.92 1158.64,1565.36 1176.06,1523.51C1177.89,1519.13 1176.75,1512.86 1176.75,1512.86C1176.75,1512.86 1095.08,1417.1 1074.58,1348.77C1059.47,1298.41 1056.12,1259.8 1065.35,1192.66C1074.58,1125.52 1128.87,1081.65 1159.86,1075.16C1187.88,1069.28 1287.87,1033.89 1337.12,1159.93C1387.63,1289.18 1283.05,1475.69 1275.77,1488.28C1268.5,1500.87 1257.83,1519.71 1257.83,1519.71L1298.33,1542.12C1298.33,1542.12 1316,1482.74 1407.5,1392.32C1483.29,1317.41 1670.67,1265.17 1749.89,1334.13C1783.58,1363.46 1757.16,1445.45 1722.14,1479.33C1600.31,1597.18 1337.12,1579.2 1337.12,1579.2L1337.12,1643.95C1337.12,1643.95 1520.25,1657.27 1599.14,1728.21C1661.01,1783.84 1606.11,1867.96 1521.15,1852.85C1434.13,1837.38 1367.18,1795.63 1337.12,1752.83C1307.06,1710.03 1300.31,1695.66 1300.31,1695.66C1300.31,1695.66 1126.43,1694.74 1035.07,1877.71C943.714,2060.67 1134.05,2164.68 1164.87,2178.35C1227.86,2206.3 1339.89,2173.46 1359.55,2168.32C1373.06,2164.8 1240.23,2240.41 1142.94,2195.79C1037.12,2147.27 947.407,2063.04 986.069,1907.58C1033.8,1715.64 1238.46,1657.85 1271.28,1652.8C1278.26,1651.73 1291.08,1648.15 1291.08,1648.15L1293.63,1570.12C1293.63,1570.12 1233.12,1521.76 1140.75,1614.12C1127.86,1627.02 1122.78,1618.39 1122.78,1618.39ZM1227.27,2043.95C1227.27,2043.95 1193.41,2001.49 1205.79,1955.99C1236.22,1844.07 1419.78,1861.57 1453.54,1971.43C1483.75,2069.69 1421.8,2132.03 1402.88,2146.21C1399.92,2148.42 1391.05,2154.57 1388.08,2156.02C1385.11,2157.47 1500.71,2108.34 1480.47,1979.03C1465.44,1883.05 1279.12,1790.08 1202.66,1918.49C1162.86,1985.32 1227.27,2043.95 1227.27,2043.95ZM1298.75,2051.57C1254.42,2050.96 1234.48,2002.08 1234.48,2002.08C1234.48,2002.08 1264.62,2035.84 1293.61,2033.39C1315.81,2031.51 1344.07,2002.1 1344.07,2002.1C1344.07,2002.1 1316.07,2051.81 1298.75,2051.57ZM1360.32,1696.08C1358.89,1728.04 1417.94,1823.01 1565.55,1825.55C1611.72,1826.35 1598.17,1780.48 1588.64,1766.55C1573.01,1743.72 1544.36,1725.6 1496.02,1711.08C1404.67,1683.65 1360.62,1689.36 1360.32,1696.08ZM1470.81,133.54C1470.81,133.54 1409.53,177.767 1321.47,296.742L1307.24,316.853C1231.78,428.924 1232.9,541.153 1232.9,541.153C1232.9,541.153 1304.29,531.529 1363.91,546.032C1470.37,571.928 1490.37,639.558 1482.85,634.769C1475.33,629.981 1380.01,592.314 1335.09,589.945C1265.53,586.277 1224.18,594.246 1224.18,594.246C1224.18,594.246 1204.51,662.781 1256.15,793.103C1333.68,988.731 1482.75,1039.31 1482.85,1038.17C1483.83,1027.34 1503.09,976.606 1535.72,942.154C1655.29,815.883 1788.08,774.274 1842.99,773.383C2023.99,770.445 2014.51,908.914 1958.53,990.059C1948.23,1004.99 1935.11,1018.74 1920.39,1031.31C1845.84,1094.96 1729.96,1128.48 1728.28,1132.41C1698.7,1201.42 1663.92,1234.28 1628.42,1239.26C1554.15,1249.68 1492.73,1204.63 1473.81,1160.61C1454.61,1115.95 1469.78,1078.02 1469.78,1078.02C1469.78,1078.02 1461.04,1078.02 1431.5,1057.21C1401.95,1036.39 1307.17,953.46 1251.11,853.99C1190.24,745.992 1186.71,600.177 1184.44,600.587C1149.88,606.822 1112.58,610.937 1075.97,635.686C1040.81,659.456 1018.92,705.811 1018.92,705.811C1067.93,742.74 1096.58,779.579 1099.93,784.951C1103.29,790.322 1165.06,886.202 1126.12,964.76C1087.18,1043.32 1031.45,1033.02 1006.61,1031.01C981.763,1028.99 920.752,1001.48 904.549,938.574C889.329,879.488 908.692,799.199 911.805,786.607C918.369,760.054 944.034,717.002 936.648,712.302C875.334,673.284 776.415,689.277 745.962,692.159C616.996,704.366 473.198,816.579 436.808,954.172C407.593,1064.64 459.905,1173.33 514.694,1228.12C569.483,1282.9 652.877,1291.31 652.877,1291.31C652.877,1291.31 655.001,1287.66 657.626,1279.5C669.713,1241.94 703.787,1195.58 757.501,1159.49C811.216,1123.4 852.632,1106.37 915.288,1101.57C967.855,1097.55 1014.67,1135.06 1019.36,1154.45C1036.77,1226.46 986.683,1306.65 881.716,1337.41C804.927,1359.92 658.147,1318.05 659.027,1339.03C664.543,1470.52 689.174,1515 747.069,1578.71C842.586,1683.83 993.484,1691.52 993.484,1691.52C993.484,1691.52 1004.9,1694.87 981.398,1695.54C957.898,1696.22 892.285,1694.2 849.789,1673.61C818.814,1658.6 733.105,1607.59 685.926,1535.97C643.612,1471.73 631.757,1340.61 629.098,1339.88C580.529,1326.64 438.177,1259.52 402.19,1131.83C315.331,823.647 589.194,668.274 743.028,649.228C874.774,632.916 965.341,673.959 965.341,673.959C965.341,673.959 1011.71,615.858 1057.12,589.358C1110.78,558.04 1175.25,552.79 1181.1,551.514L1181.1,465.989C1186.82,404.691 1209.19,352.966 1235.92,293.336C1284.73,184.442 1425.35,68.749 1425.35,68.749L1482.85,68.749L1470.81,133.54ZM1111.07,1604.45C1098.98,1623.63 1030.54,1672.56 958.283,1664.27C948.773,1663.18 942.907,1659.49 942.907,1659.49C942.907,1659.49 1010.49,1645.23 1041.04,1626.21C1044.31,1624.17 1069.22,1609.52 1074.49,1606.78C1077.56,1605.19 1101.81,1590.09 1105.72,1592.1C1109.64,1594.11 1116.11,1596.46 1111.07,1604.45ZM1341.46,1551.41C1348.47,1563.74 1578.78,1535.2 1648.34,1494.86C1777.04,1420.2 1715.94,1344.85 1685.67,1341.91C1616.35,1335.19 1535.21,1347.97 1457.02,1407.42C1378.83,1466.88 1335.11,1540.23 1341.46,1551.41ZM1199.12,1477.96C1232.21,1475.28 1308.4,1252.74 1271.88,1181.1C1221.63,1082.56 1150.13,1138.83 1141.53,1152.44C1132.94,1166.05 1099.93,1191.12 1104.62,1289.23C1109.3,1387.35 1171.25,1480.21 1199.12,1477.96ZM682.396,1292.83C682.396,1292.83 897.41,1359.27 980.509,1208.5C1018.11,1140.28 940.039,1119.62 866.317,1143.82C857.032,1146.87 817.916,1157.77 770.589,1192.2C719.434,1229.43 682.396,1292.83 682.396,1292.83ZM1533.18,1108.09C1496.66,1089.83 1481.05,1177.08 1589.24,1204.62C1638.54,1217.17 1716.32,1144.25 1701.82,1134.58C1687.32,1124.91 1686.4,1132.89 1633.09,1130.75C1579.78,1128.6 1569.71,1126.36 1533.18,1108.09ZM1709.99,866.964C1726.28,880.572 1746.95,1033.14 1729.76,1062.68C1712.57,1092.22 1583.12,1090.61 1542.3,1066.98C1501.47,1043.34 1548.33,975.376 1591.84,932.942C1635.35,890.508 1699.42,858.139 1709.99,866.964ZM1783.14,849.495C1733.86,899.972 1755,1067.03 1772.32,1068.06C1792.27,1069.26 1918.92,1016.13 1939.51,914.302C1953.1,847.081 1849.45,781.572 1783.14,849.495ZM1016.49,738.56C1012.71,734.684 993.872,732.684 987.95,742.324C978.218,758.164 968.929,769.866 959.4,803.046C936.893,881.418 929.388,997.322 1042.2,986.217C1112.8,979.267 1115,895.538 1090.44,833.468C1069.91,781.604 1028.1,750.481 1016.49,738.56ZM1639.7,691.658C1650.61,693.056 1686.69,719.847 1699.04,767.095C1700.66,773.313 1700.37,778.101 1700.37,778.101C1700.37,778.101 1679.37,740.877 1664.47,728.028C1662.87,726.654 1635.57,701.922 1635.57,698.869C1635.57,695.816 1635.16,691.076 1639.7,691.658ZM1526.46,646.302C1549.05,648.317 1623.8,686.927 1649.36,755.02C1652.72,763.982 1652.12,770.881 1652.12,770.881C1652.12,770.881 1608.62,717.236 1577.76,698.717C1574.45,696.737 1517.91,661.094 1517.91,656.694C1517.91,652.294 1517.06,645.464 1526.46,646.302Z" style="fill:none;stroke:black;stroke-width:1px;"/>
    </g>
    <defs>
        <linearGradient id="_Linear1" x1="0" y1="0" x2="1" y2="0" gradientUnits="userSpaceOnUse" gradientTransform="matrix(1596.09,0,-0,1596.09,381.953,1142.81)"><stop offset="0" style="stop-color:rgb(254,215,171);stop-opacity:1"/><stop offset="0.59" style="stop-color:rgb(105,83,57);stop-opacity:1"/><stop offset="1" style="stop-color:rgb(171,99,12);stop-opacity:1"/></linearGradient>
    </defs>
</svg>
