<svg width="120" height="120" viewBox="0 0 120 120" fill="none" xmlns="http://www.w3.org/2000/svg">
<path d="M4.75 100V88.25C4.75 85.3333 5.5 82.6875 7 80.3125C8.5 77.9375 10.5833 76.1667 13.25 75C19.3333 72.3333 24.8125 70.4167 29.6875 69.25C34.5625 68.0833 39.5833 67.5 44.75 67.5C49.9167 67.5 54.9167 68.0833 59.75 69.25C64.5833 70.4167 70.0417 72.3333 76.125 75C78.7917 76.1667 80.8958 77.9375 82.4375 80.3125C83.9792 82.6875 84.75 85.3333 84.75 88.25V100H4.75ZM77.75 67.125C83.5 67.7917 88.9167 68.7708 94 70.0625C99.0833 71.3542 103.208 72.8333 106.375 74.5C109.125 76.0833 111.292 78.0417 112.875 80.375C114.458 82.7083 115.25 85.3333 115.25 88.25V100H92.25V88.25C92.25 83 90.9167 78.6875 88.25 75.3125C85.5833 71.9375 82.0833 69.2083 77.75 67.125ZM44.75 59.875C39.25 59.875 34.75 58.125 31.25 54.625C27.75 51.125 26 46.625 26 41.125C26 35.625 27.75 31.125 31.25 27.625C34.75 24.125 39.25 22.375 44.75 22.375C50.25 22.375 54.75 24.125 58.25 27.625C61.75 31.125 63.5 35.625 63.5 41.125C63.5 46.625 61.75 51.125 58.25 54.625C54.75 58.125 50.25 59.875 44.75 59.875ZM89.75 41.125C89.75 46.625 88 51.125 84.5 54.625C81 58.125 76.5 59.875 71 59.875C70.0833 59.875 69.0625 59.8125 67.9375 59.6875C66.8125 59.5625 65.7917 59.3333 64.875 59C66.875 56.9167 68.3958 54.3542 69.4375 51.3125C70.4792 48.2708 71 44.875 71 41.125C71 37.375 70.4792 34.0625 69.4375 31.1875C68.3958 28.3125 66.875 25.6667 64.875 23.25C65.7917 23 66.8125 22.7917 67.9375 22.625C69.0625 22.4583 70.0833 22.375 71 22.375C76.5 22.375 81 24.125 84.5 27.625C88 31.125 89.75 35.625 89.75 41.125ZM12.25 92.5H77.25V88.25C77.25 86.9167 76.8542 85.625 76.0625 84.375C75.2708 83.125 74.2917 82.25 73.125 81.75C67.125 79.0833 62.0833 77.2917 58 76.375C53.9167 75.4583 49.5 75 44.75 75C40 75 35.5625 75.4583 31.4375 76.375C27.3125 77.2917 22.25 79.0833 16.25 81.75C15.0833 82.25 14.125 83.125 13.375 84.375C12.625 85.625 12.25 86.9167 12.25 88.25V92.5ZM44.75 52.375C48 52.375 50.6875 51.3125 52.8125 49.1875C54.9375 47.0625 56 44.375 56 41.125C56 37.875 54.9375 35.1875 52.8125 33.0625C50.6875 30.9375 48 29.875 44.75 29.875C41.5 29.875 38.8125 30.9375 36.6875 33.0625C34.5625 35.1875 33.5 37.875 33.5 41.125C33.5 44.375 34.5625 47.0625 36.6875 49.1875C38.8125 51.3125 41.5 52.375 44.75 52.375Z" fill="#544532"/>
</svg>
